<svg width="20" height="22" viewBox="0 0 20 22" fill="none" xmlns="http://www.w3.org/2000/svg">
<path d="M17.3972 21.8179C17.0609 21.817 16.7281 21.7494 16.418 21.6191C16.108 21.4889 15.8268 21.2984 15.5908 21.0588L9.99999 15.5007L4.40915 21.0625C4.05009 21.4268 3.58961 21.6744 3.08773 21.7732C2.58585 21.8719 2.06586 21.8172 1.59555 21.6161C1.12057 21.4251 0.714236 21.0952 0.429614 20.6697C0.144993 20.2441 -0.00469017 19.7426 0.000112032 19.2307V4.5454C0.000112032 3.33989 0.479001 2.18374 1.33143 1.33132C2.18386 0.478889 3.34 0 4.54551 0L15.4545 0C16.0514 0 16.6425 0.11757 17.1939 0.345998C17.7454 0.574426 18.2465 0.909237 18.6686 1.33132C19.0906 1.7534 19.4254 2.25448 19.6539 2.80595C19.8823 3.35742 19.9999 3.94849 19.9999 4.5454V19.2307C20.005 19.7422 19.8558 20.2434 19.5719 20.6689C19.2879 21.0944 18.8824 21.4245 18.4081 21.6161C18.0879 21.75 17.7442 21.8186 17.3972 21.8179ZM4.54551 1.81816C3.8222 1.81816 3.12852 2.10549 2.61706 2.61695C2.10561 3.12841 1.81827 3.82209 1.81827 4.5454V19.2307C1.81794 19.3822 1.86252 19.5303 1.94636 19.6565C2.03021 19.7827 2.14956 19.8812 2.28935 19.9395C2.42914 19.9979 2.58309 20.0135 2.73175 19.9844C2.88042 19.9554 3.01713 19.8829 3.12462 19.7761L9.36364 13.5753C9.53396 13.406 9.76437 13.3109 10.0045 13.3109C10.2447 13.3109 10.4751 13.406 10.6454 13.5753L16.8772 19.7743C16.9847 19.8811 17.1214 19.9535 17.2701 19.9826C17.4187 20.0117 17.5727 19.9961 17.7125 19.9377C17.8522 19.8793 17.9716 19.7809 18.0554 19.6547C18.1393 19.5285 18.1839 19.3803 18.1835 19.2289V4.5454C18.1835 3.82209 17.8962 3.12841 17.3847 2.61695C16.8733 2.10549 16.1796 1.81816 15.4563 1.81816H4.54551Z" fill="white"/>
</svg>
