<svg width="18" height="20" viewBox="0 0 18 20" fill="none" xmlns="http://www.w3.org/2000/svg">
<path d="M5.33333 7.33333C5.70152 7.33333 6 7.63181 6 8V16C6 16.3682 5.70152 16.6667 5.33333 16.6667C4.96514 16.6667 4.66667 16.3682 4.66667 16V8C4.66667 7.63181 4.96514 7.33333 5.33333 7.33333Z" fill="white"/>
<path d="M8.66667 7.33333C9.03486 7.33333 9.33333 7.63181 9.33333 8V16C9.33333 16.3682 9.03486 16.6667 8.66667 16.6667C8.29848 16.6667 8 16.3682 8 16V8C8 7.63181 8.29848 7.33333 8.66667 7.33333Z" fill="white"/>
<path d="M12.6667 8C12.6667 7.63181 12.3682 7.33333 12 7.33333C11.6318 7.33333 11.3333 7.63181 11.3333 8V16C11.3333 16.3682 11.6318 16.6667 12 16.6667C12.3682 16.6667 12.6667 16.3682 12.6667 16V8Z" fill="white"/>
<path fill-rule="evenodd" clip-rule="evenodd" d="M17.3333 4C17.3333 4.73638 16.7364 5.33333 16 5.33333H15.3333V17.3333C15.3333 18.8061 14.1394 20 12.6667 20H4.66667C3.19391 20 2 18.8061 2 17.3333V5.33333H1.33333C0.596954 5.33333 0 4.73638 0 4V2.66667C0 1.93029 0.596954 1.33333 1.33333 1.33333H6C6 0.596954 6.59695 0 7.33333 0H10C10.7364 0 11.3333 0.596954 11.3333 1.33333H16C16.7364 1.33333 17.3333 1.93029 17.3333 2.66667V4ZM3.49071 5.33333L3.33333 5.41202V17.3333C3.33333 18.0697 3.93029 18.6667 4.66667 18.6667H12.6667C13.403 18.6667 14 18.0697 14 17.3333V5.41202L13.8426 5.33333H3.49071ZM1.33333 4V2.66667H16V4H1.33333Z" fill="white"/>
</svg>
