<svg width="167" height="78" viewBox="0 0 167 78" fill="none" xmlns="http://www.w3.org/2000/svg">
<g clip-path="url(#clip0_136_1570)">
<path d="M103.434 71.8079C102.89 71.9008 102.282 72.4291 101.886 71.5002C101.044 69.5148 99.1404 68.8908 97.387 68.0926C93.5159 66.3394 89.581 64.7226 85.7764 62.8446C82.2206 61.0914 78.9743 58.8535 76.3357 55.8145C75.5082 54.8624 75.3925 54.128 76.2142 53.0076C83.2853 43.3912 89.6389 33.2843 95.9722 23.1716C99.9128 16.87 103.903 10.5945 107.357 3.99687C107.994 2.78067 108.486 1.47158 107.088 0.452765C105.67 -0.577666 104.649 0.313439 103.723 1.36999C96.8402 9.25351 89.8675 17.0529 83.1117 25.038C78.7631 30.1756 74.4638 35.3974 71.7123 41.6613C70.3785 44.6974 69.253 47.9629 70.202 51.1296C71.1163 54.1745 70.1181 56.0583 68.1854 58.0234C66.7185 59.5153 65.3876 61.1408 64.0451 62.7401C60.6629 66.7719 57.3993 70.8936 54.2688 75.5958C55.5882 75.4797 56.0106 74.7744 56.5545 74.2809C61.6524 69.628 66.4552 64.682 70.9861 59.4747C72.1723 58.1133 72.9101 57.3296 74.3741 59.2686C75.4156 60.6589 76.9722 61.6923 78.4015 62.7372C83.5775 66.5222 89.5347 68.7311 95.4023 71.12C97.3263 71.9037 99.5743 72.3565 98.2405 75.3752C97.9107 76.1212 98.3534 76.9136 99.1837 77.259C99.91 77.558 100.656 77.3722 101.064 76.7569C103.15 73.6104 106.026 72.3855 109.819 73.1489C107.835 71.4799 105.679 71.4044 103.431 71.8021L103.434 71.8079ZM74.2207 50.2705C73.7376 47.3388 74.5563 45.2228 75.4533 43.13C76.9867 39.5395 79.255 36.3988 81.6651 33.3743C84.7927 29.4412 88.0389 25.5953 91.2591 21.7348C91.6121 21.3139 91.8493 20.6492 93.0298 20.7044C86.9134 30.6371 80.907 40.358 74.2207 50.2734V50.2705Z" fill="#00B5D4"/>
<path d="M26.0335 39.499C26.0335 42.3406 25.7008 44.8891 25.0325 47.1474C24.367 49.4027 23.3457 51.3185 21.9714 52.8946C20.5971 54.4678 18.8322 55.6666 16.6825 56.488C14.5299 57.3095 11.981 57.7216 9.03853 57.7216C7.78865 57.7216 6.6082 57.6665 5.49719 57.5533C4.38618 57.443 3.42851 57.3182 2.62418 57.1789C1.68098 57.0105 0.804325 56.816 0 56.5925L3.83067 29.096C4.60896 28.8725 5.48272 28.678 6.45486 28.5097C7.28811 28.3703 8.27182 28.231 9.41176 28.0917C10.5488 27.9524 11.8132 27.8827 13.2019 27.8827C17.672 27.8827 20.9298 28.858 22.9696 30.8085C25.0122 32.7591 26.0306 35.6559 26.0306 39.5019L26.0335 39.499ZM18.8264 40.6687C18.8264 38.2741 18.3346 36.4048 17.348 35.0696C16.3614 33.7315 14.9379 33.0639 13.0775 33.0639C12.6869 33.0639 12.3282 33.0784 11.9954 33.1045C11.6627 33.1335 11.3705 33.1742 11.1217 33.2293C10.815 33.2845 10.5401 33.3425 10.2884 33.3977L7.66424 52.2444C7.85809 52.2995 8.09533 52.3576 8.37309 52.4127C8.81575 52.4969 9.51013 52.5376 10.4562 52.5376C11.7322 52.5376 12.8866 52.2676 13.9137 51.7219C14.9408 51.1791 15.8145 50.3925 16.5379 49.3621C17.2612 48.3317 17.8225 47.0835 18.2246 45.6206C18.6268 44.1577 18.8293 42.5061 18.8293 40.6687H18.8264Z" fill="white"/>
<path d="M31.6146 35.6964C32.1962 35.6964 32.6967 35.7371 33.1133 35.8213C33.5299 35.9054 33.8627 35.9896 34.1144 36.0709C34.4182 36.1812 34.6699 36.2944 34.8637 36.4047L32.0312 56.7143C31.7824 56.8536 31.5047 56.9785 31.198 57.0917C30.9202 57.1758 30.5673 57.2513 30.1362 57.321C29.7051 57.3906 29.1987 57.4255 28.6143 57.4255C28.0299 57.4255 27.4946 57.3906 27.0925 57.321C26.6903 57.2513 26.3489 57.1758 26.0711 57.0917C25.7644 56.9814 25.5156 56.8565 25.3218 56.7143L28.1543 36.4047C28.3771 36.2944 28.6548 36.1812 28.9875 36.0709C29.2913 35.9867 29.653 35.9025 30.0696 35.8213C30.4862 35.74 30.9983 35.6964 31.6117 35.6964H31.6146ZM31.9473 33.5659C31.3079 33.5659 30.7814 33.5311 30.3647 33.4614C29.9481 33.3918 29.6009 33.3163 29.3232 33.2321C29.0165 33.1218 28.7676 32.997 28.5738 32.8577L29.1987 28.5531C29.4215 28.4428 29.6993 28.3296 30.032 28.2193C30.3098 28.1351 30.6627 28.0509 31.0938 27.9697C31.5249 27.8855 32.0457 27.8448 32.6562 27.8448C33.8771 27.8448 34.7451 27.9551 35.2601 28.1787C35.7722 28.4022 36.0297 28.527 36.0297 28.556L35.4048 32.8606C35.156 32.9999 34.8782 33.1247 34.5715 33.235C34.2648 33.3192 33.9061 33.3947 33.4894 33.4643C33.0728 33.534 32.5578 33.5688 31.9473 33.5688V33.5659Z" fill="white"/>
<path d="M52.8251 36.1203C53.2128 36.1203 53.615 36.0564 54.0316 35.9316C54.4482 35.8068 54.8099 35.6733 55.1137 35.5339C55.4724 35.3685 55.8341 35.1595 56.1957 34.907C57.1129 34.936 57.8189 35.2959 58.3194 35.9926C58.8199 36.6892 58.9299 37.6354 58.6521 38.8313C58.3744 39.081 57.9722 39.3335 57.4456 39.5831C56.9191 39.8327 56.3491 40.0156 55.7386 40.1259C56.1813 40.7935 56.4041 41.6585 56.4041 42.715C56.4041 44.0793 56.0916 45.3042 55.4666 46.3898C54.8417 47.4753 53.9882 48.4013 52.9061 49.1676C51.824 49.9339 50.5597 50.5173 49.1188 50.9207C47.6751 51.3242 46.1359 51.5274 44.4983 51.5274C43.8589 51.5274 43.1992 51.4868 42.5222 51.4026C41.8423 51.3184 41.1971 51.1791 40.5866 50.9846C40.3089 51.0978 40.0514 51.2487 39.817 51.4432C39.5798 51.6377 39.464 51.9309 39.464 52.3198C39.464 52.7668 39.762 53.0919 40.3581 53.3009C40.9541 53.5099 42.0448 53.6144 43.6245 53.6144H46.9981C49.4689 53.6144 51.4305 54.0033 52.8887 54.7841C54.3469 55.5649 55.0732 56.9292 55.0732 58.8768C55.0732 60.4355 54.7115 61.794 53.9911 62.9492C53.2678 64.1045 52.2985 65.0652 51.0776 65.8315C49.8566 66.5978 48.4418 67.1667 46.8303 67.5441C45.2216 67.9214 43.5262 68.1072 41.7526 68.1072C38.5064 68.1072 36.1194 67.6398 34.5918 66.7081C33.0641 65.7764 32.3032 64.5834 32.3032 63.1379C32.3032 62.2468 32.4826 61.4892 32.8443 60.8622C33.203 60.2353 33.6283 59.7215 34.1144 59.318C34.6005 58.9146 35.0663 58.6156 35.509 58.4211C35.9516 58.2266 36.2583 58.1018 36.4261 58.0438C36.2612 58.0148 36.0529 57.9451 35.8012 57.8348C35.5523 57.7216 35.3006 57.5416 35.0518 57.292C34.803 57.0424 34.586 56.7202 34.4066 56.3312C34.2243 55.9423 34.1347 55.4401 34.1347 54.8277C34.1347 54.0498 34.314 53.3444 34.6757 52.7175C35.0373 52.0905 35.4395 51.568 35.8822 51.1501C36.3248 50.7321 36.7502 50.4041 37.1523 50.169C37.5545 49.9339 37.7975 49.8003 37.8814 49.7713C37.1581 49.214 36.6113 48.4825 36.2381 47.5798C35.8648 46.6742 35.6768 45.6786 35.6768 44.593C35.6768 43.1446 35.9806 41.8501 36.5939 40.7093C37.2044 39.5686 38.0232 38.6078 39.0503 37.827C40.0774 37.0491 41.2579 36.4483 42.5887 36.0303C43.9196 35.6123 45.3084 35.4033 46.7521 35.4033C47.6693 35.4033 48.4042 35.4382 48.9597 35.5078C49.5152 35.5775 49.9926 35.6617 50.3948 35.7575C50.7969 35.8561 51.1788 35.9374 51.5405 36.0071C51.9021 36.0767 52.3303 36.1116 52.8309 36.1116L52.8251 36.1203ZM38.0058 61.1815C38.0058 61.8491 38.3386 62.3716 39.004 62.7489C39.6695 63.1263 40.7949 63.312 42.3747 63.312C46.2314 63.312 48.1612 62.3222 48.1612 60.3456C48.1612 59.5648 47.7995 59.0655 47.0791 58.842C46.3558 58.6185 45.4965 58.5082 44.4983 58.5082H40.9164C40.6098 58.5634 40.2915 58.6533 39.9588 58.781C39.6261 58.9059 39.3136 59.0742 39.0214 59.2832C38.7291 59.4922 38.4861 59.7563 38.2923 60.0756C38.0984 60.3949 38 60.7635 38 61.1815H38.0058ZM42.418 44.0154C42.418 44.8514 42.6871 45.4986 43.2311 45.9573C43.7721 46.4159 44.5706 46.6452 45.6238 46.6452C46.7898 46.6452 47.7532 46.3317 48.517 45.7047C49.2809 45.0778 49.6628 44.1809 49.6628 43.0111C49.6628 42.149 49.3995 41.4727 48.8729 40.9851C48.3463 40.4974 47.5536 40.2536 46.5004 40.2536C45.2795 40.2536 44.2929 40.5874 43.5435 41.255C42.7942 41.9226 42.418 42.8428 42.418 44.0125V44.0154Z" fill="white"/>
<path d="M63.1511 35.7051C63.7327 35.7051 64.2332 35.7458 64.6498 35.8299C65.0665 35.9141 65.3992 35.9983 65.648 36.0796C65.9518 36.1899 66.2035 36.3031 66.3974 36.4134L63.5678 56.7114C63.3189 56.8507 63.0412 56.9755 62.7345 57.0887C62.4567 57.1729 62.1038 57.2484 61.6727 57.3181C61.2416 57.3877 60.7353 57.4226 60.1537 57.4226C59.5722 57.4226 59.0369 57.3877 58.6348 57.3181C58.2326 57.2484 57.8912 57.1729 57.6163 57.0887C57.3096 56.9784 57.0608 56.8536 56.867 56.7114L59.6995 36.4134C59.9223 36.3031 60.2 36.1899 60.5327 36.0796C60.8365 35.9954 61.1982 35.9112 61.6148 35.8299C62.0314 35.7458 62.5435 35.7051 63.154 35.7051H63.1511ZM63.4839 33.5746C62.8444 33.5746 62.3179 33.5398 61.9012 33.4701C61.4846 33.4005 61.1374 33.325 60.8597 33.2408C60.553 33.1305 60.3042 33.0057 60.1103 32.8664L60.7353 28.5647C60.958 28.4544 61.2358 28.3412 61.5685 28.2309C61.8463 28.1467 62.1992 28.0654 62.6303 27.9813C63.0614 27.8971 63.5793 27.8564 64.1927 27.8564C65.4137 27.8564 66.2816 27.9667 66.7937 28.1902C67.3058 28.4137 67.5633 28.5386 67.5633 28.5676L66.9384 32.8693C66.6896 33.0086 66.4118 33.1334 66.1051 33.2437C65.7985 33.3279 65.4397 33.4034 65.0231 33.473C64.6064 33.5427 64.0943 33.5775 63.4839 33.5775V33.5746Z" fill="white"/>
<path d="M105.699 27.8826C106.894 27.8826 107.947 27.9522 108.865 28.0916C109.782 28.2309 110.595 28.4137 111.301 28.6343C112.01 28.8579 112.614 29.1017 113.112 29.3658C113.612 29.6299 114.029 29.8738 114.362 30.0973C114.388 30.7097 114.327 31.2873 114.174 31.833C114.02 32.3758 113.806 32.8635 113.529 33.296C113.251 33.7284 112.924 34.0971 112.551 34.4048C112.177 34.7124 111.793 34.9214 111.405 35.0317C110.739 34.5296 109.857 34.0855 108.76 33.6936C107.664 33.3047 106.449 33.1073 105.115 33.1073C103.587 33.1073 102.392 33.3946 101.533 33.9636C100.671 34.5354 100.243 35.2814 100.243 36.1986C100.243 36.8401 100.575 37.3538 101.244 37.7457C101.909 38.1346 102.98 38.5961 104.452 39.1244L108.326 40.4625C110.158 41.104 111.59 41.9516 112.617 43.011C113.644 44.0705 114.159 45.5044 114.159 47.3156C114.159 48.7379 113.902 50.0818 113.39 51.3474C112.875 52.6158 112.079 53.7217 110.994 54.6709C109.912 55.6171 108.538 56.3631 106.871 56.9059C105.205 57.4487 103.22 57.7215 100.914 57.7215C99.4412 57.7215 98.1364 57.6083 96.9993 57.3877C95.8594 57.1642 94.8612 56.8856 93.999 56.5518C93.1368 56.218 92.4309 55.8609 91.8754 55.4865C91.3199 55.1121 90.9032 54.7696 90.6255 54.4619C90.5966 54.0149 90.6457 53.5505 90.7701 53.0628C90.8946 52.5752 91.0826 52.1079 91.3314 51.6637C91.5803 51.2196 91.8783 50.822 92.2255 50.4737C92.5726 50.1254 92.9401 49.8554 93.3307 49.658C93.6345 49.9077 94.08 50.2008 94.6645 50.5346C95.246 50.8684 95.9288 51.1819 96.7042 51.4751C97.4825 51.7682 98.336 52.0179 99.2647 52.2269C100.193 52.4358 101.16 52.5403 102.161 52.5403C103.66 52.5403 104.826 52.2617 105.659 51.7044C106.492 51.1471 106.909 50.3663 106.909 49.3649C106.909 48.2793 106.13 47.4695 104.577 46.9412L98.1624 44.8107C96.6348 44.3085 95.3849 43.4958 94.4128 42.3667C93.4406 41.2375 92.9546 39.7978 92.9546 38.0417C92.9546 34.9214 94.0453 32.4484 96.2239 30.6226C98.4026 28.7998 101.562 27.8855 105.699 27.8855V27.8826Z" fill="white"/>
<path d="M118.945 33.4614C119.361 33.5311 119.888 33.5659 120.527 33.5659C121.167 33.5659 121.653 33.5311 122.069 33.4614C122.486 33.3917 122.848 33.3163 123.151 33.2321C123.458 33.1218 123.736 32.997 123.985 32.8576L124.61 28.5531C124.61 28.524 124.352 28.3992 123.84 28.1757C123.325 27.9522 122.457 27.8419 121.236 27.8419C120.626 27.8419 120.105 27.8826 119.674 27.9667C119.243 28.0509 118.89 28.1351 118.612 28.2164C118.279 28.3296 118.001 28.4399 117.779 28.5502L117.154 32.8547C117.348 32.9941 117.596 33.1189 117.903 33.2292C118.181 33.3134 118.528 33.3888 118.945 33.4585V33.4614Z" fill="white"/>
<path d="M120.611 56.7172L120.944 54.3342C120.857 53.6608 120.961 52.9932 121.216 52.3836L123.444 36.4105C123.25 36.3002 122.998 36.187 122.694 36.0767C122.446 35.9925 122.11 35.9084 121.693 35.8271C121.277 35.7458 120.776 35.7023 120.195 35.7023C119.584 35.7023 119.069 35.7429 118.652 35.8271C118.236 35.9113 117.874 35.9954 117.57 36.0767C117.238 36.187 116.96 36.3002 116.737 36.4105L113.905 56.7202C114.098 56.8595 114.35 56.9843 114.654 57.0975C114.932 57.1817 115.27 57.2571 115.675 57.3268C116.077 57.3965 116.584 57.4313 117.197 57.4313C117.811 57.4313 118.288 57.3965 118.719 57.3268C119.15 57.2571 119.503 57.1817 119.781 57.0975C120.085 56.9872 120.362 56.8624 120.614 56.7202L120.611 56.7172Z" fill="white"/>
<path d="M160.891 35.4033C161.889 35.4033 162.792 35.5426 163.599 35.8212C164.404 36.0999 165.072 36.5382 165.598 37.139C166.125 37.7399 166.495 38.4975 166.704 39.4176C166.912 40.3377 166.932 41.4233 166.767 42.6772L165.393 52.4968C165.338 52.9699 165.384 53.2979 165.538 53.4779C165.691 53.6608 166.03 53.7507 166.559 53.7507C166.643 53.8901 166.712 54.0584 166.767 54.2529C166.822 54.4212 166.866 54.6157 166.892 54.8363C166.921 55.0598 166.921 55.3094 166.892 55.5881C166.614 56.0061 166.252 56.3689 165.81 56.6737C165.419 56.9523 164.921 57.1962 164.311 57.4051C163.7 57.6141 162.951 57.7186 162.06 57.7186C161.253 57.7186 160.602 57.6286 160.101 57.4458C159.601 57.2629 159.213 57.0626 158.935 56.8391C158.603 56.5605 158.365 56.2557 158.226 55.919L159.933 43.6322C160.072 42.5466 159.974 41.7252 159.641 41.1679C159.309 40.6106 158.655 40.3319 157.682 40.3319C157.211 40.3319 156.78 40.4016 156.392 40.5409C156.002 40.6802 155.663 40.8341 155.371 40.9995C155.079 41.1679 154.83 41.3333 154.621 41.5017C154.413 41.67 154.268 41.7948 154.185 41.8761L152.101 56.7114C151.879 56.8507 151.615 56.9755 151.312 57.0888C151.034 57.1729 150.681 57.2484 150.25 57.3181C149.819 57.3877 149.312 57.4226 148.728 57.4226C148.143 57.4226 147.602 57.3877 147.186 57.3181C146.769 57.2484 146.422 57.1729 146.144 57.0888C145.838 56.9785 145.589 56.8536 145.395 56.7114L148.227 36.4424C148.45 36.3031 148.728 36.1783 149.061 36.068C149.338 35.9838 149.691 35.8996 150.122 35.8183C150.554 35.7342 151.06 35.6935 151.644 35.6935C152.229 35.6935 152.686 35.7342 153.102 35.8183C153.519 35.9025 153.852 35.9867 154.104 36.068C154.407 36.1783 154.645 36.306 154.812 36.4424L154.604 37.946C154.714 37.8066 154.931 37.5977 155.249 37.319C155.568 37.0403 155.984 36.7559 156.499 36.4627C157.011 36.1696 157.636 35.9199 158.374 35.7109C159.109 35.502 159.951 35.3975 160.894 35.3975L160.891 35.4033Z" fill="white"/>
<path d="M146.894 35.9896C146.393 35.293 145.684 34.9302 144.77 34.9041C144.408 35.1537 144.047 35.3627 143.688 35.531C143.381 35.6703 143.022 35.8039 142.606 35.9287C142.189 36.0535 141.787 36.1173 141.399 36.1173C140.899 36.1173 140.468 36.0825 140.109 36.0129C139.747 35.9432 139.365 35.859 138.963 35.7632C138.561 35.6645 138.081 35.5833 137.525 35.5136C136.97 35.4439 136.235 35.4091 135.318 35.4091C133.874 35.4091 132.485 35.6181 131.151 36.0361C129.818 36.4541 128.637 37.0549 127.61 37.8328C126.583 38.6136 125.764 39.5744 125.154 40.7151C124.543 41.8587 124.236 43.1533 124.236 44.6017C124.236 45.6873 124.425 46.6858 124.798 47.5885C124.879 47.7859 124.974 47.9717 125.073 48.1545H125.067C125.07 48.1545 125.081 48.1777 125.087 48.1864C125.119 48.2416 125.154 48.2968 125.185 48.3519C125.434 48.7873 125.987 49.8148 126.039 49.8642C126.346 50.1312 126.508 50.346 126.554 50.555C126.615 50.8249 126.49 51.0891 126.25 51.449C125.845 52.0527 125.512 52.7145 125.235 53.3879C124.219 55.8668 124.737 56.8856 127.309 57.559C128.299 57.8144 129.3 58.0176 130.283 58.2963C131.875 58.7491 132.812 59.527 131.681 61.3034C131.461 61.6459 131.446 62.1248 131.284 62.7547C131.015 62.0436 131.105 61.1844 130.295 61.135C129.543 61.0915 129.381 61.7185 129.297 62.3309C129.349 63.6458 129.138 65.0507 130.509 65.9215C130.761 66.6036 130.972 67.306 131.279 67.962C131.472 68.38 132.04 68.7689 132.32 68.3539C133.596 66.4788 135.998 66.5862 137.551 65.161C139.762 63.1408 140.659 60.7345 140.123 57.858C139.626 55.1847 137.626 54.0526 135.173 53.5331C134.887 53.4721 134.591 53.4315 134.328 53.3183C133.59 52.9874 132.329 53.2951 132.303 52.0615C132.3 51.8263 132.346 51.658 132.413 51.5158C132.63 51.5245 132.85 51.5361 133.064 51.5361C134.701 51.5361 136.243 51.3329 137.687 50.9294C139.131 50.526 140.395 49.9396 141.477 49.1733C142.559 48.4071 143.413 47.4811 144.038 46.3955C144.663 45.31 144.975 44.085 144.975 42.7179C144.975 41.6585 144.753 40.7964 144.31 40.1259C144.92 40.0156 145.49 39.8327 146.017 39.5831C146.543 39.3335 146.949 39.0809 147.226 38.8313C147.504 37.6325 147.394 36.6863 146.894 35.9896ZM137.085 45.7047C136.322 46.3317 135.358 46.6452 134.192 46.6452C133.136 46.6452 132.338 46.4159 131.797 45.9543C131.255 45.4957 130.984 44.8484 130.984 44.0125C130.984 42.8427 131.357 41.9226 132.109 41.255C132.858 40.5874 133.845 40.2536 135.066 40.2536C136.122 40.2536 136.912 40.4974 137.441 40.985C137.968 41.4727 138.231 42.149 138.231 43.0111C138.231 44.1808 137.849 45.0806 137.085 45.7076V45.7047Z" fill="white"/>
<path d="M131.322 68.0113C127.48 70.5569 124.008 74.0487 118.739 72.8993C117.689 72.5481 116.604 73.326 115.325 72.7542C116.957 71.5989 118.742 71.1723 120.359 70.406C119.144 70.9662 117.848 71.3232 116.662 71.9647C116.245 72.1911 115.528 72.5742 115.386 71.5612C116.17 70.9284 117.186 70.4466 117.698 69.6426C120.513 65.2161 125.373 65.4076 129.595 64.1566C130.738 65.187 130.888 66.6645 131.322 68.0142V68.0113Z" fill="white"/>
<path d="M115.386 71.5844C116.503 71.7963 119.026 71.0561 120.371 69.9967C120.834 69.6339 121.129 69.0243 121.786 69.5497C121.965 69.6948 122.104 70.0838 122.043 70.2986C121.818 71.091 121.155 70.6672 120.66 70.7978C119.005 71.2332 117.42 71.9211 115.568 72.6032C116.792 73.0502 117.816 72.4378 118.742 72.9225C117.052 73.1867 115.366 73.6656 113.549 73.2563C113.928 72.2346 114.689 71.9472 115.386 71.5844Z" fill="#EFEFEF"/>
<path d="M129.398 64.2118C129.398 64.2118 131.056 65.962 131.322 68.0113L130.827 68.3451C130.827 68.3451 129.114 64.5688 128.767 64.3801L129.401 64.2089L129.398 64.2118Z" fill="#EFEFEF"/>
</g>
<defs>
<clipPath id="clip0_136_1570">
<rect width="166.909" height="77.4071" fill="white"/>
</clipPath>
</defs>
</svg>
