<svg width="30" height="16" viewBox="0 0 30 16" fill="none" xmlns="http://www.w3.org/2000/svg">
<path d="M1.10018 10.6125L5.93768 15.5C6.05388 15.6172 6.19213 15.7101 6.34446 15.7736C6.49678 15.8371 6.66016 15.8697 6.82518 15.8697C6.99019 15.8697 7.15358 15.8371 7.3059 15.7736C7.45822 15.7101 7.59648 15.6172 7.71268 15.5C7.82984 15.3838 7.92283 15.2455 7.98629 15.0932C8.04975 14.9409 8.08243 14.7775 8.08243 14.6125C8.08243 14.4475 8.04975 14.2841 7.98629 14.1318C7.92283 13.9795 7.82984 13.8412 7.71268 13.725L3.26268 9.25H28.7502C29.0817 9.25 29.3996 9.1183 29.6341 8.88388C29.8685 8.64946 30.0002 8.33152 30.0002 8C30.0002 7.66848 29.8685 7.35053 29.6341 7.11611C29.3996 6.88169 29.0817 6.75 28.7502 6.75H3.18768L7.71268 2.225C7.93429 1.99253 8.05792 1.68367 8.05792 1.3625C8.05792 1.04132 7.93429 0.732467 7.71268 0.499997C7.59648 0.382836 7.45822 0.289843 7.3059 0.226382C7.15358 0.162922 6.99019 0.130249 6.82518 0.130249C6.66016 0.130249 6.49678 0.162922 6.34446 0.226382C6.19213 0.289843 6.05388 0.382836 5.93768 0.499997L1.10018 5.3125C0.397927 6.01562 0.003479 6.96874 0.003479 7.9625C0.003479 8.95625 0.397927 9.90937 1.10018 10.6125Z" fill="#EFF4FB"/>
</svg>
