<svg width="30" height="16" viewBox="0 0 30 16" fill="none" xmlns="http://www.w3.org/2000/svg">
<path d="M28.9032 5.25783L24.0651 0.369788C23.9489 0.252615 23.8107 0.159612 23.6583 0.0961439C23.506 0.0326761 23.3426 0 23.1775 0C23.0125 0 22.8491 0.0326761 22.6968 0.0961439C22.5444 0.159612 22.4062 0.252615 22.29 0.369788C22.0571 0.604017 21.9264 0.920867 21.9264 1.25114C21.9264 1.5814 22.0571 1.89825 22.29 2.13248L26.7404 6.62048H1.25014C0.91858 6.62048 0.600603 6.75219 0.366157 6.98663C0.131711 7.22108 0 7.53906 0 7.87061H0C0 8.20217 0.131711 8.52015 0.366157 8.75459C0.600603 8.98904 0.91858 9.12075 1.25014 9.12075H26.8154L22.29 13.6337C22.1728 13.75 22.0798 13.8882 22.0163 14.0406C21.9528 14.1929 21.9202 14.3563 21.9202 14.5213C21.9202 14.6864 21.9528 14.8498 22.0163 15.0021C22.0798 15.1545 22.1728 15.2927 22.29 15.4089C22.4062 15.5261 22.5444 15.6191 22.6968 15.6826C22.8491 15.7461 23.0125 15.7787 23.1775 15.7787C23.3426 15.7787 23.506 15.7461 23.6583 15.6826C23.8107 15.6191 23.9489 15.5261 24.0651 15.4089L28.9032 10.5584C29.6055 9.8552 30 8.90198 30 7.90812C30 6.91425 29.6055 5.96103 28.9032 5.25783Z" fill="#EFF4FB"/>
</svg>
