<svg width="24" height="26" viewBox="0 0 24 26" fill="none" xmlns="http://www.w3.org/2000/svg">
<path d="M0 0.923077C0 0.413276 0.413276 0 0.923077 0H23.0769C23.5867 0 24 0.413276 24 0.923077V4.61538C24 4.84342 23.9156 5.06339 23.763 5.23289L15.6923 14.2004V23.0769C15.6923 23.4742 15.4381 23.827 15.0611 23.9526L9.52267 25.7988C9.24118 25.8926 8.93175 25.8454 8.69104 25.6719C8.45033 25.4984 8.30769 25.2198 8.30769 24.9231V14.2004L0.236959 5.23289C0.0844095 5.06339 0 4.84342 0 4.61538V0.923077ZM1.84615 1.84615V4.26117L9.91689 13.2286C10.0694 13.3981 10.1538 13.6181 10.1538 13.8462V23.6424L13.8462 22.4116V13.8462C13.8462 13.6181 13.9306 13.3981 14.0831 13.2286L22.1538 4.26117V1.84615H1.84615Z" fill="white"/>
</svg>
